<?xml version="1.0" encoding="UTF-8"?>
<svg id="_레이어_2" data-name="레이어 2" xmlns="http://www.w3.org/2000/svg" viewBox="0 0 220.75 33.77">
  <defs>
    <style>
      .cls-1 {
        fill: #e94744;
      }

      .cls-1, .cls-2 {
        stroke-width: 0px;
      }

      .cls-2 {
        fill: #f5d346;
      }
    </style>
  </defs>
  <g id="_레이어_1-2" data-name="레이어 1">
    <g>
      <path class="cls-2" d="M27.59,0h27.59v28.02l-.09.09c-7.56,7.56-19.82,7.56-27.38,0h0s-.12-28.1-.12-28.1Z"/>
      <path class="cls-1" d="M0,0h27.59v28.02l-.09.09c-7.56,7.56-19.82,7.56-27.38,0h0S0,0,0,0Z"/>
      <path class="cls-2" d="M82.78,0h27.59v28.02l-.09.09c-7.56,7.56-19.82,7.56-27.38,0h0s-.12-28.1-.12-28.1Z"/>
      <path class="cls-1" d="M55.19,0h27.59v28.02l-.09.09c-7.56,7.56-19.82,7.56-27.38,0h0s-.12-28.1-.12-28.1Z"/>
      <path class="cls-2" d="M137.97,0h27.59v28.02l-.09.09c-7.56,7.56-19.82,7.56-27.38,0h0s-.12-28.1-.12-28.1Z"/>
      <path class="cls-1" d="M110.38,0h27.59v28.02l-.09.09c-7.56,7.56-19.82,7.56-27.38,0h0s-.12-28.1-.12-28.1Z"/>
      <path class="cls-2" d="M193.16,0h27.59v28.02l-.09.09c-7.56,7.56-19.82,7.56-27.38,0h0s-.12-28.1-.12-28.1Z"/>
      <path class="cls-1" d="M165.57,0h27.59v28.02l-.09.09c-7.56,7.56-19.82,7.56-27.38,0h0s-.12-28.1-.12-28.1Z"/>
    </g>
  </g>
</svg>